<?xml version="1.0" standalone="no"?>
<!DOCTYPE svg PUBLIC "-//W3C//DTD SVG 20010904//EN"
 "http://www.w3.org/TR/2001/REC-SVG-20010904/DTD/svg10.dtd">
<svg version="1.0" xmlns="http://www.w3.org/2000/svg"
 width="100.000000pt" height="100.000000pt" viewBox="0 0 100.000000 100.000000"
 preserveAspectRatio="xMidYMid meet">
<metadata>
Created by potrace 1.14, written by Peter Selinger 2001-2017
</metadata>
<g transform="translate(0.000000,100.000000) scale(0.100000,-0.100000)"
fill="#000000" stroke="none">
<path d="M515 921 c-33 -20 -185 -173 -186 -187 0 -5 -2 -18 -4 -29 -6 -30 23
-81 53 -95 l27 -12 -104 -97 c-252 -232 -252 -232 -258 -282 -6 -56 15 -103
58 -127 16 -10 29 -19 29 -22 0 -5 21 -4 97 2 7 1 14 7 17 14 3 8 12 11 22 7
12 -4 15 -3 10 5 -10 16 54 84 72 77 13 -5 13 -3 1 12 -12 15 -12 16 4 10 12
-4 16 -3 11 4 -8 14 37 61 54 54 7 -2 10 0 7 5 -8 13 26 59 43 60 8 0 10 5 6
12 -5 8 -2 9 9 5 9 -3 19 -1 23 5 4 7 3 8 -4 4 -23 -14 -12 7 18 36 17 15 30
33 30 38 0 6 5 10 11 10 6 0 9 -7 5 -15 -3 -8 -2 -14 2 -13 4 2 20 -10 36 -25
16 -15 31 -25 34 -22 3 3 11 0 19 -6 9 -8 13 -8 13 -1 0 6 6 9 14 6 8 -3 17
-1 21 5 3 6 11 11 17 11 6 0 5 -7 -3 -17 -12 -15 -10 -15 8 1 12 10 21 23 20
30 -1 6 4 10 11 8 8 -1 11 2 8 7 -8 12 18 33 29 23 5 -4 5 -2 2 4 -8 14 36 57
48 47 4 -5 5 -3 2 3 -7 11 20 42 31 36 3 -1 7 5 8 14 2 9 8 22 15 28 9 8 10 6
5 -9 -5 -13 -4 -17 3 -10 17 18 -6 107 -34 133 -15 12 -33 22 -41 22 -8 0 -14
6 -14 13 0 7 -40 52 -90 100 -49 47 -90 91 -90 96 0 13 -53 41 -77 41 -10 0
-31 -8 -48 -19z"/>
<path d="M815 449 c-4 -6 -5 -12 -2 -15 2 -3 7 2 10 11 7 17 1 20 -8 4z"/>
<path d="M525 380 c-3 -6 1 -7 9 -4 18 7 21 14 7 14 -6 0 -13 -4 -16 -10z"/>
<path d="M626 319 c-38 -4 -54 -12 -73 -35 -13 -16 -28 -35 -34 -42 -17 -21
-39 -80 -39 -106 0 -38 46 -86 81 -86 22 0 28 -4 23 -12 -5 -8 -1 -8 10 1 15
13 19 13 27 0 6 -10 9 -10 9 -1 0 6 7 12 16 12 9 0 12 -5 8 -12 -5 -9 -2 -9 9
1 14 11 20 11 34 0 11 -10 14 -10 9 -1 -4 7 -2 12 8 12 8 0 17 -6 19 -12 4
-10 6 -10 6 0 1 16 33 16 50 -1 11 -9 13 -9 7 1 -9 16 6 16 23 -1 11 -9 13 -9
7 1 -9 16 6 16 23 -1 11 -9 13 -9 7 1 -4 7 -1 12 8 12 8 0 17 -6 19 -12 3 -8
6 -6 6 5 1 9 7 17 15 17 8 0 23 14 34 31 16 26 18 38 10 72 -11 51 -80 145
-111 152 -36 8 -159 10 -211 4z"/>
<path d="M375 221 c-3 -5 0 -13 6 -17 7 -4 9 -3 5 4 -3 5 0 13 6 15 9 4 10 6
1 6 -6 1 -14 -3 -18 -8z"/>
</g>
</svg>
